<?xml version="1.0" standalone="no"?>
<!DOCTYPE svg PUBLIC "-//W3C//DTD SVG 20010904//EN"
 "http://www.w3.org/TR/2001/REC-SVG-20010904/DTD/svg10.dtd">
<svg version="1.0" xmlns="http://www.w3.org/2000/svg"
 width="160.000000pt" height="116.000000pt" viewBox="0 0 160.000000 116.000000"
 preserveAspectRatio="xMidYMid meet">

<g transform="translate(0.000000,116.000000) scale(0.100000,-0.100000)"
fill="#000000" stroke="none">
<path d="M87 1131 c-28 -19 -54 -46 -67 -70 -19 -39 -20 -57 -20 -487 0 -440
0 -447 22 -485 12 -21 39 -50 60 -64 l38 -25 675 0 c562 0 681 2 703 14 36 19
78 65 91 99 7 18 11 181 11 464 0 426 -1 438 -21 481 -15 29 -37 54 -67 73
l-46 29 -666 0 -666 0 -47 -29z m1379 -42 c31 -15 48 -32 63 -63 20 -41 21
-59 21 -449 0 -441 -1 -447 -55 -497 l-27 -25 -663 -3 -663 -2 -31 26 c-62 52
-61 43 -61 501 0 477 -1 469 80 511 l44 22 625 0 c610 0 626 0 667 -21z"/>
<path d="M1207 933 c-4 -3 -7 -46 -7 -94 0 -71 3 -88 16 -93 32 -12 44 13 44
93 0 75 -9 101 -35 101 -7 0 -15 -3 -18 -7z"/>
<path d="M244 685 c-4 -8 -1 -22 6 -30 10 -12 49 -15 229 -15 119 0 222 4 229
9 8 5 12 17 10 27 -3 18 -17 19 -236 22 -201 2 -233 0 -238 -13z"/>
<path d="M1207 653 c-4 -3 -7 -46 -7 -95 0 -70 3 -90 15 -94 8 -4 22 -1 30 6
19 16 21 160 3 178 -13 13 -31 16 -41 5z"/>
<path d="M244 515 c-4 -8 -1 -22 6 -30 10 -12 49 -15 229 -15 119 0 222 4 229
9 8 5 12 17 10 27 -3 18 -17 19 -236 22 -201 2 -233 0 -238 -13z"/>
<path d="M1212 372 c-9 -6 -12 -33 -10 -98 3 -78 5 -89 22 -92 28 -6 36 15 36
99 0 86 -14 112 -48 91z"/>
</g>
</svg>
